<?xml version="1.0" encoding="UTF-8"?><svg id="Calque_1" xmlns="http://www.w3.org/2000/svg" viewBox="0 0 512 512"><defs><style>.cls-1{fill:#fff;}</style></defs><path class="cls-1" d="M243.8,339.8c-10.9,10.9-28.7,10.9-39.6,0l-64-64c-10.9-10.9-10.9-28.7,0-39.6,10.9-10.9,28.7-10.9,39.6,0l44.2,44.2,108.2-108.2c10.9-10.9,28.7-10.9,39.6,0,10.9,10.9,10.9,28.7,0,39.6l-128,128Zm268.2-83.8c0,141.4-114.6,256-256,256S0,397.4,0,256,114.6,0,256,0s256,114.6,256,256ZM256,48c-114.9,0-208,93.1-208,208s93.1,208,208,208,208-93.1,208-208S370.9,48,256,48Z"/></svg>